<svg xmlns="http://www.w3.org/2000/svg" width="86" height="100" viewBox="0 0 86 100">
  <metadata><?xpacket begin="﻿" id="W5M0MpCehiHzreSzNTczkc9d"?>
<x:xmpmeta xmlns:x="adobe:ns:meta/" x:xmptk="Adobe XMP Core 5.6-c138 79.159824, 2016/09/14-01:09:01        ">
   <rdf:RDF xmlns:rdf="http://www.w3.org/1999/02/22-rdf-syntax-ns#">
      <rdf:Description rdf:about=""/>
   </rdf:RDF>
</x:xmpmeta>
                                                                                                    
                                                                                                    
                                                                                                    
                                                                                                    
                                                                                                    
                                                                                                    
                                                                                                    
                                                                                                    
                                                                                                    
                                                                                                    
                                                                                                    
                                                                                                    
                                                                                                    
                                                                                                    
                                                                                                    
                                                                                                    
                                                                                                    
                                                                                                    
                                                                                                    
                                                                                                    
                           
<?xpacket end="w"?></metadata>
<defs>
    <style>
      .cls-1 {
        fill-rule: evenodd;
      }
    </style>
  </defs>
  <path class="cls-1" d="M933.042,2286.2H878.919a1.88,1.88,0,0,0,0,3.76h54.123A1.88,1.88,0,0,0,933.042,2286.2Zm0,14.77H878.919a1.88,1.88,0,0,0,0,3.76h54.123A1.88,1.88,0,0,0,933.042,2300.97Zm12.079-44.05H879.278l62.9-19.44a1.876,1.876,0,0,0,1.24-2.35l-3.965-12.81a1.877,1.877,0,0,0-2.35-1.23l-74.785,23.1a1.88,1.88,0,0,0-1.24,2.35l3.881,12.54v60.04a1.878,1.878,0,0,0,1.879,1.88h78.28a1.878,1.878,0,0,0,1.879-1.88v-60.33A1.877,1.877,0,0,0,945.121,2256.92Zm-10.574,3.75-9.661,9.65H912.754l9.661-9.65h12.132Zm-17.447,0-9.661,9.65H895.307l9.661-9.65H917.1Zm-17.447,0-9.661,9.65H877.86l9.661-9.65h12.132Zm-17.447,0-9.661,9.65H868.72v-9.65h13.486Zm54.215-35.44,2.854,9.22-3.654,1.13-12.084-6.37Zm-17.962,5.55,12.085,6.37-11.591,3.58-12.084-6.37Zm-16.668,5.15,12.084,6.37-11.59,3.58-12.084-6.37Zm-16.668,5.15,12.084,6.37-11.59,3.58-12.084-6.37Zm-19.9,6.14,3.228-.99,12.084,6.37-12.458,3.85Zm78.014,70.03H868.72v-43.17h74.521v43.17Zm0-46.93H930.2l9.661-9.65h3.379v9.65Z" transform="translate(-861 -2221)"/>
</svg>
