<svg xmlns="http://www.w3.org/2000/svg" width="134" height="100" viewBox="0 0 134 100">
  <metadata><?xpacket begin="﻿" id="W5M0MpCehiHzreSzNTczkc9d"?>
<x:xmpmeta xmlns:x="adobe:ns:meta/" x:xmptk="Adobe XMP Core 5.6-c138 79.159824, 2016/09/14-01:09:01        ">
   <rdf:RDF xmlns:rdf="http://www.w3.org/1999/02/22-rdf-syntax-ns#">
      <rdf:Description rdf:about=""/>
   </rdf:RDF>
</x:xmpmeta>
                                                                                                    
                                                                                                    
                                                                                                    
                                                                                                    
                                                                                                    
                                                                                                    
                                                                                                    
                                                                                                    
                                                                                                    
                                                                                                    
                                                                                                    
                                                                                                    
                                                                                                    
                                                                                                    
                                                                                                    
                                                                                                    
                                                                                                    
                                                                                                    
                                                                                                    
                                                                                                    
                           
<?xpacket end="w"?></metadata>
<defs>
    <style>
      .cls-1 {
        fill-rule: evenodd;
      }
    </style>
  </defs>
  <path id="Forma_1" data-name="Forma 1" class="cls-1" d="M378.676,2234.89h-7.4v-4.63a1.545,1.545,0,0,0-1.549-1.54H352.057a1.545,1.545,0,0,0-1.549,1.54v4.63H346.8l-3.786-12.26a2.321,2.321,0,0,0-2.221-1.63H287.206a2.321,2.321,0,0,0-2.221,1.63l-3.786,12.26h-4.293v-4.63a1.545,1.545,0,0,0-1.55-1.54h-1.671v-5.41a1.545,1.545,0,0,0-1.55-1.54H260.913a1.545,1.545,0,0,0-1.549,1.54v5.41h-1.672a1.545,1.545,0,0,0-1.55,1.54v4.63h-6.818A2.321,2.321,0,0,0,247,2237.2v81.48a2.323,2.323,0,0,0,2.324,2.32H378.676a2.323,2.323,0,0,0,2.324-2.32V2237.2A2.321,2.321,0,0,0,378.676,2234.89ZM314,2311.51a29.165,29.165,0,1,1,29.286-29.17A29.258,29.258,0,0,1,314,2311.51Zm33.934-29.17a33.935,33.935,0,1,0-53.789,27.39h-42.5v-64.04h124.7v64.04h-42.5A33.719,33.719,0,0,0,347.934,2282.34Zm5.673-50.54h14.565v3.09H353.607v-3.09Zm-64.684-6.17h50.154l2.86,9.26H286.063Zm-26.46-.77h8.122v3.86h-8.122v-3.86Zm-3.222,6.94h14.566v3.09H259.241v-3.09Zm117.11,7.72v3.08h-124.7v-3.08h124.7Zm-124.7,76.85v-3.55H299.34a34.027,34.027,0,0,0,29.32,0h47.691v3.55h-124.7ZM314,2259.04a23.305,23.305,0,1,0,23.4,23.3A23.374,23.374,0,0,0,314,2259.04Zm0,43.52a20.215,20.215,0,1,1,20.3-20.22A20.282,20.282,0,0,1,314,2302.56Zm0-38.69a18.475,18.475,0,1,0,18.552,18.47A18.534,18.534,0,0,0,314,2263.87Zm0,33.86a15.39,15.39,0,1,1,15.452-15.39A15.436,15.436,0,0,1,314,2297.73Zm57.116-50.79H350.663a1.545,1.545,0,0,0-1.55,1.54v14.25a1.547,1.547,0,0,0,1.55,1.55h20.453a1.547,1.547,0,0,0,1.55-1.55v-14.25A1.545,1.545,0,0,0,371.116,2246.94Zm-1.549,14.25H352.212v-11.17h17.355v11.17Zm-12.424-1.75h7.494a1.545,1.545,0,0,0,1.55-1.54v-4.58a1.554,1.554,0,0,0-1.55-1.55h-7.494a1.554,1.554,0,0,0-1.55,1.55v4.58A1.545,1.545,0,0,0,357.143,2259.44Zm1.549-4.58h4.395v1.49h-4.395v-1.49Zm-89.766,46a6.9,6.9,0,1,0,6.9-6.87A6.889,6.889,0,0,0,268.926,2300.86Zm10.691,0a3.8,3.8,0,1,1-3.8-3.78A3.789,3.789,0,0,1,279.617,2300.86Z" transform="translate(-247 -2221)"/>
</svg>
