<svg xmlns="http://www.w3.org/2000/svg" width="90" height="100" viewBox="0 0 90 100">
  <metadata><?xpacket begin="﻿" id="W5M0MpCehiHzreSzNTczkc9d"?>
<x:xmpmeta xmlns:x="adobe:ns:meta/" x:xmptk="Adobe XMP Core 5.6-c138 79.159824, 2016/09/14-01:09:01        ">
   <rdf:RDF xmlns:rdf="http://www.w3.org/1999/02/22-rdf-syntax-ns#">
      <rdf:Description rdf:about=""/>
   </rdf:RDF>
</x:xmpmeta>
                                                                                                    
                                                                                                    
                                                                                                    
                                                                                                    
                                                                                                    
                                                                                                    
                                                                                                    
                                                                                                    
                                                                                                    
                                                                                                    
                                                                                                    
                                                                                                    
                                                                                                    
                                                                                                    
                                                                                                    
                                                                                                    
                                                                                                    
                                                                                                    
                                                                                                    
                                                                                                    
                           
<?xpacket end="w"?></metadata>
<defs>
    <style>
      .cls-1 {
        fill-rule: evenodd;
      }
    </style>
  </defs>
  <path class="cls-1" d="M1234.91,2257.73a2.191,2.191,0,0,0-2.2-.05l-14.41,7.76v-6.65a2.226,2.226,0,0,0-2.23-2.23h-3.63a20,20,0,1,0-32-20.24,15.073,15.073,0,1,0-22.3,20.24h-2.04a2.232,2.232,0,0,0-2.23,2.23v10.13h-5.64a2.232,2.232,0,0,0-2.23,2.23v8.78a2.232,2.232,0,0,0,2.23,2.23h5.64v10.14a2.232,2.232,0,0,0,2.23,2.23h26.31l-12.09,23.21a2.232,2.232,0,0,0,3.96,2.06l11.8-22.68,11.81,22.68a2.232,2.232,0,1,0,3.96-2.06l-12.09-23.21h26.31a2.232,2.232,0,0,0,2.23-2.23v-6.66l14.41,7.77a2.337,2.337,0,0,0,1.06.26,2.2,2.2,0,0,0,1.14-.31,2.232,2.232,0,0,0,1.09-1.92v-31.8A2.216,2.216,0,0,0,1234.91,2257.73Zm-81.04,19.97h-3.41v-4.32h3.41v4.32Zm46-52.24a15.55,15.55,0,1,1-15.53,15.55A15.562,15.562,0,0,1,1199.87,2225.46Zm-17.03,26.02a20.232,20.232,0,0,0,4.46,5.08h-7.78A15.161,15.161,0,0,0,1182.84,2251.48Zm-14.01-16.17a10.625,10.625,0,1,1-10.61,10.62A10.625,10.625,0,0,1,1168.83,2235.31Zm45.01,33.87v20.88h-55.51v-29.04h55.51v8.16Zm17.7,18.52-13.24-7.13v-10.06l13.24-7.13v24.32Zm-62.71-48.55a6.78,6.78,0,1,0,6.77,6.78A6.784,6.784,0,0,0,1168.83,2239.15Zm0,9.54a2.76,2.76,0,1,1,2.76-2.76A2.766,2.766,0,0,1,1168.83,2248.69Zm31.04-17.42a9.74,9.74,0,1,0,9.73,9.74A9.75,9.75,0,0,0,1199.87,2231.27Zm0,15.01a5.27,5.27,0,1,1,5.27-5.27A5.277,5.277,0,0,1,1199.87,2246.28Zm-7.19,21.23h-24.25a2.113,2.113,0,0,0-2.11,2.12v11.82a2.113,2.113,0,0,0,2.11,2.12h24.25a2.113,2.113,0,0,0,2.11-2.12v-11.82A2.113,2.113,0,0,0,1192.68,2267.51Zm-2.12,11.82h-20.01v-7.58h20.01v7.58h0Zm13.81-9.7a2.235,2.235,0,1,1-2.23,2.23A2.232,2.232,0,0,1,1204.37,2269.63Zm0,7.36a2.23,2.23,0,1,1-2.23,2.23A2.232,2.232,0,0,1,1204.37,2276.99Z" transform="translate(-1146 -2221)"/>
</svg>
