<svg xmlns="http://www.w3.org/2000/svg" width="105" height="100" viewBox="0 0 105 100">
  <metadata><?xpacket begin="﻿" id="W5M0MpCehiHzreSzNTczkc9d"?>
<x:xmpmeta xmlns:x="adobe:ns:meta/" x:xmptk="Adobe XMP Core 5.6-c138 79.159824, 2016/09/14-01:09:01        ">
   <rdf:RDF xmlns:rdf="http://www.w3.org/1999/02/22-rdf-syntax-ns#">
      <rdf:Description rdf:about=""/>
   </rdf:RDF>
</x:xmpmeta>
                                                                                                    
                                                                                                    
                                                                                                    
                                                                                                    
                                                                                                    
                                                                                                    
                                                                                                    
                                                                                                    
                                                                                                    
                                                                                                    
                                                                                                    
                                                                                                    
                                                                                                    
                                                                                                    
                                                                                                    
                                                                                                    
                                                                                                    
                                                                                                    
                                                                                                    
                                                                                                    
                           
<?xpacket end="w"?></metadata>
<defs>
    <style>
      .cls-1 {
        fill-rule: evenodd;
      }
    </style>
  </defs>
  <path class="cls-1" d="M603.5,2310.47a7.015,7.015,0,1,0-7-7.01A7.023,7.023,0,0,0,603.5,2310.47Zm0-10.52a3.51,3.51,0,1,1-3.5,3.51A3.516,3.516,0,0,1,603.5,2299.95Zm-7-29.83h14a1.755,1.755,0,0,0,0-3.51h-14A1.755,1.755,0,0,0,596.5,2270.12Zm19.25,3.51h-24.5a1.755,1.755,0,0,0,0,3.51h24.5A1.755,1.755,0,0,0,615.75,2273.63Zm38.5-45.61H645.5v-2.99a3.961,3.961,0,0,0-4.025-4.03h-2.45a3.961,3.961,0,0,0-4.025,4.03v2.99h-8.75a1.755,1.755,0,0,0,0,3.51H635v2.98a3.958,3.958,0,0,0,3.5,4v5.58a5.156,5.156,0,0,0-3.5,4.98v6.14l-10.5,7.9v-1.58a3.6,3.6,0,0,0-3.675-3.69H608.75v-8.77a1.75,1.75,0,0,0-3.5,0v8.77h-3.5v-5.26a1.75,1.75,0,1,0-3.5,0v5.26H586.175a3.6,3.6,0,0,0-3.675,3.69v1.58l-10.5-7.9v-6.14a5.156,5.156,0,0,0-3.5-4.98v-5.58a3.958,3.958,0,0,0,3.5-4v-2.98h8.75a1.755,1.755,0,0,0,0-3.51H572v-2.99a3.961,3.961,0,0,0-4.025-4.03h-2.45a3.961,3.961,0,0,0-4.025,4.03v2.99h-8.75a1.755,1.755,0,0,0,0,3.51h8.75v2.98a3.958,3.958,0,0,0,3.5,4v5.58a5.156,5.156,0,0,0-3.5,4.98v28.07a5.25,5.25,0,1,0,10.5,0v-6.6l8.856,7.73c-6.5,4.08-13.42,18.46-14.057,30.45H566.75v8.24a3.964,3.964,0,0,0,4.025,4.04h2.45a3.964,3.964,0,0,0,4.025-4.04v-6.49c0-13.86,11.2-24.56,15.75-24.56h3.5v3.51h-3.85a3.139,3.139,0,0,0-3.15,3.16v21.75a3.139,3.139,0,0,0,3.15,3.16h21.7a3.4,3.4,0,0,0,3.325-2.98v-21.93a3.139,3.139,0,0,0-3.15-3.16H610.5v-3.51H614c4.55,0,15.75,10.7,15.75,24.56v6.49a3.964,3.964,0,0,0,4.025,4.04h2.45a3.964,3.964,0,0,0,4.025-4.04v-8.24H640.2c-0.637-11.99-7.561-26.37-14.057-30.45l8.856-7.73v6.6a5.25,5.25,0,1,0,10.5,0v-28.07a5.156,5.156,0,0,0-3.5-4.98v-5.58a3.958,3.958,0,0,0,3.5-4v-2.98h8.75A1.755,1.755,0,0,0,654.25,2228.02Zm-15.75-2.99a0.461,0.461,0,0,1,.525-0.52h2.45a0.461,0.461,0,0,1,.525.52v2.99h-3.5v-2.99Zm-73.5,0a0.461,0.461,0,0,1,.525-0.52h2.45a0.461,0.461,0,0,1,.525.52v2.99H565v-2.99Zm3.5,6.5v2.98a0.461,0.461,0,0,1-.525.52h-2.45a0.461,0.461,0,0,1-.525-0.52v-2.98h3.5Zm0,45.61a1.75,1.75,0,0,1-3.5,0v-28.07a1.75,1.75,0,0,1,3.5,0v28.07Zm3.5-17.54,10.5,7.72v7.54l-10.5-9.12v-6.14Zm1.75,57.36a0.464,0.464,0,0,1-.525.53h-2.45a0.464,0.464,0,0,1-.525-0.53v-4.73h3.5v4.73h0Zm0-8.24h-3.5c0.7-11.93,7.875-24.39,12.25-27.37v1.05a3.3,3.3,0,0,0,2.8,3.51A33.069,33.069,0,0,0,573.75,2308.72ZM614,2292.93v21.05H593v-21.05h21Zm-7-3.51h-7v-3.51h7v3.51Zm3.5-7.02H586.175c-0.175,0-.175,0-0.175-0.17l0.175-20.88h34.65c0.175,0,.175,0,0.175.18v20.7c0,0.17,0,.17-0.175.17H610.5Zm26.25,34.56a0.464,0.464,0,0,1-.525.53h-2.45a0.464,0.464,0,0,1-.525-0.53v-4.73h3.5v4.73Zm0-8.24h-3.5a34.514,34.514,0,0,0-11.55-22.81,3.579,3.579,0,0,0,2.8-3.51v-1.05C629.05,2284.33,636.05,2296.79,636.75,2308.72Zm-12.25-33.68v-7.55l10.5-7.89v6.31Zm17.5,2.1a1.75,1.75,0,0,1-3.5,0v-28.07a1.75,1.75,0,0,1,3.5,0v28.07Zm0-42.63a0.461,0.461,0,0,1-.525.52h-2.45a0.461,0.461,0,0,1-.525-0.52v-2.98H642v2.98Z" transform="translate(-551 -2221)"/>
</svg>
