<svg xmlns="http://www.w3.org/2000/svg" width="82" height="57" viewBox="0 0 82 57">
  <metadata><?xpacket begin="﻿" id="W5M0MpCehiHzreSzNTczkc9d"?>
<x:xmpmeta xmlns:x="adobe:ns:meta/" x:xmptk="Adobe XMP Core 5.6-c138 79.159824, 2016/09/14-01:09:01        ">
   <rdf:RDF xmlns:rdf="http://www.w3.org/1999/02/22-rdf-syntax-ns#">
      <rdf:Description rdf:about=""/>
   </rdf:RDF>
</x:xmpmeta>
                                                                                                    
                                                                                                    
                                                                                                    
                                                                                                    
                                                                                                    
                                                                                                    
                                                                                                    
                                                                                                    
                                                                                                    
                                                                                                    
                                                                                                    
                                                                                                    
                                                                                                    
                                                                                                    
                                                                                                    
                                                                                                    
                                                                                                    
                                                                                                    
                                                                                                    
                                                                                                    
                           
<?xpacket end="w"?></metadata>
<defs>
    <style>
      .cls-1 {
        fill: #fff;
        fill-rule: evenodd;
      }
    </style>
  </defs>
  <path id="logo" class="cls-1" d="M-47.479,85.343A9.082,9.082,0,0,1-52,83.606l1.275-1.834c2.125,1.487,4.135,1.737,5.487.733a2.85,2.85,0,0,0,1.082-3.049,2.167,2.167,0,0,0-.966-1.158,4.617,4.617,0,0,0-2.415-.54l-1.913.019,2.473-4.536h-4.115V71.022h7.9l-2.57,4.671a6.6,6.6,0,0,1,1.816.695,4.374,4.374,0,0,1,1.893,2.355,4.783,4.783,0,0,1-.019,3.03,5.389,5.389,0,0,1-1.816,2.509,5.378,5.378,0,0,1-3.265,1.061h-0.329Zm16.712-4.632a4.828,4.828,0,0,1-1.14,3.127,4.3,4.3,0,0,1-3.3,1.505A4.516,4.516,0,0,1-39.4,82.777c-1.314-2.529-.908-6.389.927-9.014a6.573,6.573,0,0,1,2.434-2.142,5.792,5.792,0,0,1,3.13-.579V73.3a3.44,3.44,0,0,0-2.125.328,4.282,4.282,0,0,0-1.6,1.428,6.6,6.6,0,0,0-.889,1.814,5.028,5.028,0,0,1,2.183-.463,4.513,4.513,0,0,1,3.439,1.332A4.254,4.254,0,0,1-30.767,80.711Zm-2.241,0a1.971,1.971,0,0,0-.522-1.428,2.39,2.39,0,0,0-1.816-.637,2.352,2.352,0,0,0-2.067.985,2.928,2.928,0,0,0-.406.868,4.156,4.156,0,0,0,.406,1.254,2.305,2.305,0,0,0,2.2,1.351,2.064,2.064,0,0,0,1.6-.714A2.625,2.625,0,0,0-33.008,80.711Zm6.8,3.956a5.387,5.387,0,0,1-1.758-1.737,8.831,8.831,0,0,1-1.294-4.768A8.993,8.993,0,0,1-27.986,73.4a5.6,5.6,0,0,1,1.739-1.7,4.717,4.717,0,0,1,2.512-.675,4.6,4.6,0,0,1,2.492.675A5,5,0,0,1-19.5,73.435,8.83,8.83,0,0,1-18.21,78.2a8.924,8.924,0,0,1-1.275,4.748,5.216,5.216,0,0,1-1.72,1.718,4.825,4.825,0,0,1-2.492.676A4.895,4.895,0,0,1-26.209,84.668Zm0.116-10.036a6.658,6.658,0,0,0-.927,3.532,6.779,6.779,0,0,0,.927,3.552A2.793,2.793,0,0,0-23.7,83.1a2.653,2.653,0,0,0,2.319-1.37A6.651,6.651,0,0,0-20.47,78.2a6.773,6.773,0,0,0-.908-3.552,2.716,2.716,0,0,0-2.357-1.39A2.691,2.691,0,0,0-26.093,74.631Zm25.463-1.6H-4.571V85.343h-2.26V73.029h-3.941V71.022H-0.63v2.007ZM5.359,84.784a7.156,7.156,0,0,1-4.386-6.6,7.311,7.311,0,0,1,.56-2.8,7.549,7.549,0,0,1,1.546-2.278,7.064,7.064,0,0,1,2.28-1.525,7.165,7.165,0,0,1,2.782-.56,7.335,7.335,0,0,1,2.8.56,7.508,7.508,0,0,1,2.28,1.525,7.485,7.485,0,0,1,1.526,2.278,7.308,7.308,0,0,1,.56,2.8,7.138,7.138,0,0,1-.56,2.779,7.045,7.045,0,0,1-1.526,2.278,7.572,7.572,0,0,1-2.28,1.544,7.337,7.337,0,0,1-2.8.559A7.167,7.167,0,0,1,5.359,84.784Zm-0.7-10.075a4.9,4.9,0,1,0,3.478-1.448A4.891,4.891,0,0,0,4.663,74.709Zm21.174-1.679H21.9V85.343h-2.26V73.029H15.694V71.022H25.838v2.007ZM33.7,82.275H28.6l-1.217,3.069H24.91l6.24-14.978,6.221,14.978H34.918Zm-0.812-2.007L31.15,75.905l-1.739,4.362h3.477Zm14.547,5.076h-8.23V71.022h2.241V83.317h5.989v2.026Zm7.437,0V71.022h2.241V85.343H54.873Zm16.441,0v-7.6l-4.482,6.678-4.5-6.678v7.6H60.089V70.366L66.832,80.4l6.743-10.037V85.343h-2.26Zm13.021-3.069h-5.1l-1.217,3.069H75.544l6.241-14.978,6.221,14.978H85.552Zm-0.812-2.007-1.739-4.362-1.739,4.362h3.477Zm16.576-.328v3.88l-0.5.347a0.039,0.039,0,0,0-.039.02,0.149,0.149,0,0,1-.077.038,0.1,0.1,0,0,1-.058.039,0.1,0.1,0,0,1-.078.039,0.26,0.26,0,0,1-.077.058c-0.019.019-.039,0.019-0.058,0.039s-0.038.019-.058,0.039c-0.039.02-.058,0.02-0.1,0.039-0.019.019-.038,0.019-0.058,0.038a0.148,0.148,0,0,1-.1.039l-0.038.039H98.825a0.414,0.414,0,0,1-.1.058c-0.038.019-.1,0.039-0.135,0.058l-0.019.019a7.274,7.274,0,0,1-2.57.618H95.637a6.846,6.846,0,0,1-2.26-.367H93.357c-0.077-.019-0.135-0.058-0.212-0.077l-0.29-.116a3.916,3.916,0,0,1-.7-0.348,6.351,6.351,0,0,1-1.584-1.2,7.11,7.11,0,0,1-1.546-2.278,6.909,6.909,0,0,1-.521-2.065c-0.019-.232-0.039-0.483-0.039-0.715V77.816a7.556,7.556,0,0,1,.56-2.432,7.328,7.328,0,0,1,1.546-2.278,7.182,7.182,0,0,1,5.062-2.084H96a0.536,0.536,0,0,1,.174.019,7.041,7.041,0,0,1,2.415.6,0.019,0.019,0,0,0,.019.019l0.116,0.058h0.019v2.644a4.581,4.581,0,0,0-.966-0.618,5.561,5.561,0,0,0-.889-0.328,0.071,0.071,0,0,1-.058-0.019H96.777a0.094,0.094,0,0,0-.077-0.019,0.06,0.06,0,0,1-.039-0.019c-0.077-.019-0.174-0.019-0.251-0.039H96.371c-0.019,0-.058-0.02-0.077-0.02H96.255a0.116,0.116,0,0,1-.077-0.019H96c-0.019,0-.039-0.019-0.058-0.019H95.637a4.8,4.8,0,0,0-2.531.695,0.414,0.414,0,0,1-.1.058,4.194,4.194,0,0,0-.85.7,3.091,3.091,0,0,0-.251.251,0.019,0.019,0,0,1-.019.019,3.889,3.889,0,0,0-.251.348l-0.038.039-0.116.174a0.147,0.147,0,0,0-.038.077,4.611,4.611,0,0,0-.6,1.467,0.038,0.038,0,0,0-.019.038c-0.039.193-.077,0.386-0.1,0.579v0.212a1.269,1.269,0,0,0-.019.27,1.185,1.185,0,0,0,.019.251,5.061,5.061,0,0,0,.174,1.081,4.933,4.933,0,0,0,4.734,3.59h0.135a0.072,0.072,0,0,0,.058-0.019h0.29c0-.019.019-0.019,0.039-0.019h0.116c0.136-.019.29-0.058,0.425-0.077a0.038,0.038,0,0,0,.038-0.019,0.118,0.118,0,0,0,.077-0.019h0.058a0.071,0.071,0,0,1,.058-0.019,0.116,0.116,0,0,1,.077-0.019,0.066,0.066,0,0,0,.038-0.019,3.967,3.967,0,0,0,.792-0.309h0.019V79.939h-2.7V77.912H100.1v2.027Zm2.355,5.4V71.022H104.7V85.343h-2.242Zm7.458-9.207v9.207h-2.241v-15l9,9.863V71.022h2.26V86ZM133,79.939v3.88l-0.5.347a0.038,0.038,0,0,0-.038.02,0.152,0.152,0,0,1-.077.038,0.1,0.1,0,0,1-.058.039,0.1,0.1,0,0,1-.078.039,0.256,0.256,0,0,1-.077.058c-0.019.019-.039,0.019-0.058,0.039s-0.038.019-.058,0.039c-0.039.02-.058,0.02-0.1,0.039-0.019.019-.038,0.019-0.057,0.038a0.152,0.152,0,0,1-.1.039l-0.039.039h-0.038a0.423,0.423,0,0,1-.1.058c-0.039.019-.1,0.039-0.135,0.058l-0.02.019a7.266,7.266,0,0,1-2.569.618h-0.367a6.849,6.849,0,0,1-2.261-.367h-0.019c-0.077-.019-0.135-0.058-0.212-0.077l-0.29-.116a3.905,3.905,0,0,1-.7-0.348,6.329,6.329,0,0,1-1.584-1.2,7.1,7.1,0,0,1-1.546-2.278,6.893,6.893,0,0,1-.521-2.065c-0.02-.232-0.039-0.483-0.039-0.715V77.816a7.546,7.546,0,0,1,.56-2.432,7.316,7.316,0,0,1,1.546-2.278,7.183,7.183,0,0,1,5.062-2.084H128.9a0.536,0.536,0,0,1,.174.019,7.042,7.042,0,0,1,2.415.6,0.019,0.019,0,0,0,.019.019l0.116,0.058h0.019v2.644a4.577,4.577,0,0,0-.966-0.618,5.478,5.478,0,0,0-.889-0.328,0.069,0.069,0,0,1-.057-0.019h-0.058a0.1,0.1,0,0,0-.078-0.019,0.058,0.058,0,0,1-.038-0.019c-0.078-.019-0.174-0.019-0.252-0.039h-0.038c-0.019,0-.058-0.02-0.077-0.02h-0.039a0.116,0.116,0,0,1-.077-0.019H128.9c-0.02,0-.039-0.019-0.058-0.019h-0.309a4.8,4.8,0,0,0-2.531.695,0.423,0.423,0,0,1-.1.058,4.193,4.193,0,0,0-.85.7,3.074,3.074,0,0,0-.251.251,0.019,0.019,0,0,1-.019.019,3.981,3.981,0,0,0-.252.348l-0.038.039c-0.039.058-.078,0.116-0.116,0.174a0.141,0.141,0,0,0-.039.077,4.608,4.608,0,0,0-.6,1.467,0.038,0.038,0,0,0-.019.038c-0.039.193-.077,0.386-0.1,0.579v0.212a1.3,1.3,0,0,0-.019.27,1.209,1.209,0,0,0,.019.251,5.131,5.131,0,0,0,.174,1.081,4.933,4.933,0,0,0,4.734,3.59h0.135a0.073,0.073,0,0,0,.058-0.019h0.29c0-.019.019-0.019,0.038-0.019h0.116c0.135-.019.29-0.058,0.425-0.077a0.04,0.04,0,0,0,.039-0.019,0.116,0.116,0,0,0,.077-0.019h0.058a0.071,0.071,0,0,1,.058-0.019,0.117,0.117,0,0,1,.078-0.019,0.066,0.066,0,0,0,.038-0.019,3.958,3.958,0,0,0,.792-0.309h0.019V79.939h-2.7V77.912H133v2.027ZM65.2,34.015l-0.018.357-0.022.437c-0.009.175-.014,0.36-0.044,0.649q-0.039.408-.087,0.91c-0.033.334-.093,0.663-0.145,1.037s-0.133.764-.217,1.185-0.194.862-.313,1.328A24.99,24.99,0,0,1,41.094,58.6c-0.481.02-.966,0.009-1.452,0.013l-0.722-.033-0.334-.017-0.168-.009-0.191-.017c-0.5-.052-1.037-0.085-1.515-0.167l-0.735-.111c-0.245-.041-0.488-0.1-0.733-0.143a23.545,23.545,0,0,1-5.727-1.928,24.218,24.218,0,0,1-5.161-3.347,23.768,23.768,0,0,1-2.238-2.155,23.953,23.953,0,0,1-4.845-7.938A23.538,23.538,0,0,1,15.9,36.713c-0.06-.51-0.065-1.025-0.1-1.535l0-.767V33.9l0-.09,0.009-.181,0.036-.721c0.008-.234.045-0.513,0.066-0.766s0.045-.522.084-0.772l0.113-.75a23.539,23.539,0,0,1,1.7-5.723A24.011,24.011,0,0,1,20.8,19.928a24.294,24.294,0,0,1,3.935-3.948,23.642,23.642,0,0,1,4.517-2.792A22.924,22.924,0,0,1,38.607,11c0.377,0,.731,0,1.116,0l1.059,0.054c0.712,0.064,1.413.134,2.076,0.252a22.976,22.976,0,0,1,3.713.937,22.7,22.7,0,0,1,8.554,5.334c0.331,0.314.556,0.584,0.722,0.752L56.09,18.59l-0.257-.249c-0.173-.16-0.411-0.417-0.756-0.714a22.1,22.1,0,0,0-12.324-5.581c-0.653-.083-1.313-0.116-1.994-0.145l-1.06,0c-0.329.01-.7,0.034-1.05,0.05a21.743,21.743,0,0,0-8.761,2.5,22.1,22.1,0,0,0-4.086,2.81,22.5,22.5,0,0,0-3.452,3.819,21.94,21.94,0,0,0-2.5,4.659,21.2,21.2,0,0,0-1.28,5.223l-0.068.675c-0.025.226-.025,0.441-0.039,0.662s-0.03.425-.027,0.672v0.993c0-.052,0,0.01,0,0.01l0,0.043,0.018,0.34L18.5,35.04c0.054,0.452.077,0.906,0.154,1.355a20.766,20.766,0,0,0,5.979,11.887,20.6,20.6,0,0,0,6.5,4.36,19.537,19.537,0,0,0,4.853,1.372c0.2,0.029.408,0.066,0.613,0.089l0.614,0.061c0.417,0.053.786,0.047,1.174,0.075l0.144,0.008h1.114c0.4-.026.8-0.034,1.195-0.071a20.524,20.524,0,0,0,4.523-.916,20,20,0,0,0,11.5-9.687,19.327,19.327,0,0,0,1.815-5.023c0.072-.363.149-0.7,0.189-1.031s0.1-.629.121-0.916,0.062-.558.071-0.782,0.02-.428.029-0.61c0.014-.164.011-0.382,0.011-0.555s0-.32,0-0.438c0-.236,0-0.357,0-0.357Zm-44.145-.479s0.026-.352.076-1.013q0.018-.248.041-0.553a3.515,3.515,0,0,1,.048-0.359l0.067-.411a14.255,14.255,0,0,1,.394-1.9l0.3-1.062c0.125-.364.281-0.738,0.431-1.13l0.236-.6c0.093-.2.2-0.395,0.3-0.6l0.314-.616a5.8,5.8,0,0,1,.346-0.624l0.806-1.26,0.972-1.246c0.344-.416.744-0.8,1.13-1.217a7.1,7.1,0,0,1,.629-0.584L27.8,19.8a17.876,17.876,0,0,1,6.707-3.453l0.987-.231,0.5-.114,0.51-.069,1.027-.133,0.259-.032,0.261-.009,0.524-.016,1.055-.028a0.645,0.645,0,0,1,.111,0l0.03,0,0.06,0,0.121,0.009,0.242,0.018,0.486,0.037,0.488,0.037c0.083,0.008.16,0.009,0.249,0.021L41.7,15.888l1.114,0.19a8.036,8.036,0,0,1,1.077.257l1.056,0.3,1.03,0.4,0.515,0.2c0.171,0.07.332,0.163,0.5,0.244l0.993,0.507c0.326,0.178.633,0.394,0.951,0.59a17.041,17.041,0,0,1,4.848,4.668,18.06,18.06,0,0,1,1.192,1.928c0.181,0.331.321,0.685,0.483,1.026a8.444,8.444,0,0,1,.43,1.047l0.364,1.071c0.114,0.359.181,0.731,0.272,1.1a16.852,16.852,0,0,1,.361,2.217,3.776,3.776,0,0,1,.04.558l0.016,0.558,0.015,0.557,0.007,0.278V33.62a0.62,0.62,0,0,1,0,.083l0,0.066-0.01.131-0.079,1.046c-0.018.178-.016,0.341-0.05,0.529l-0.1.559-0.2,1.108-0.3,1.051-0.148.522c-0.057.171-.129,0.338-0.193,0.506l-0.395,1a17.338,17.338,0,0,1-2.182,3.6,17.616,17.616,0,0,1-2.847,2.88c-0.265.2-.536,0.385-0.8,0.575a8.11,8.11,0,0,1-.809.541,15.628,15.628,0,0,1-1.679.9,16.751,16.751,0,0,1-6.8,1.585c-0.274,0-.531.019-0.81,0.016L38.8,50.285c-0.518-.047-1.027-0.1-1.509-0.184a16.739,16.739,0,0,1-2.7-.682,16.506,16.506,0,0,1-6.217-3.878c-0.241-.229-0.4-0.424-0.525-0.546l-0.177-.189,0.186,0.181c0.126,0.116.3,0.3,0.55,0.519a16.06,16.06,0,0,0,8.957,4.057c0.474,0.06.954,0.084,1.449,0.106h0.77c0.239-.011.507-0.036,0.762-0.054A15.888,15.888,0,0,0,46.711,47.8a14.578,14.578,0,0,0,1.529-.921,7.3,7.3,0,0,0,.729-0.541c0.238-.19.482-0.374,0.719-0.57a16.3,16.3,0,0,0,2.5-2.787,15.844,15.844,0,0,0,1.828-3.377l0.311-.924c0.05-.155.109-0.307,0.153-0.464l0.109-.478,0.221-.956,0.121-.949,0.063-.474c0.024-.155.014-0.343,0.023-0.514L55.04,33.8l0-.131,0-.066a0.075,0.075,0,1,1,0,.017l0-.031-0.02-.247-0.038-.494-0.037-.494a3.032,3.032,0,0,0-.059-0.491,14.816,14.816,0,0,0-.415-1.936c-0.1-.316-0.167-0.639-0.284-0.947l-0.365-.919A6.858,6.858,0,0,0,53.4,27.17c-0.156-.289-0.289-0.59-0.461-0.87a15.691,15.691,0,0,0-1.114-1.615A14.453,14.453,0,0,0,47.5,20.9c-0.277-.152-0.542-0.324-0.825-0.46l-0.857-.383c-0.143-.061-0.281-0.135-0.427-0.186l-0.441-.147-0.874-.295-0.893-.2a5.793,5.793,0,0,0-.872-0.165l-0.844-.108-0.209-.029c-0.074-.007-0.162-0.005-0.242-0.009l-0.49-.013-0.892-.023-0.867.069-0.429.032L38.12,19l-0.21.039-0.833.151-0.412.073-0.4.116-0.791.226a14.293,14.293,0,0,0-5.242,3.032l-0.5.483a4.826,4.826,0,0,0-.476.487c-0.286.346-.591,0.662-0.844,1l-0.716,1.016-0.579,1.017a3.815,3.815,0,0,0-.244.5l-0.22.491c-0.071.161-.146,0.316-0.211,0.473l-0.156.473c-0.1.31-.209,0.6-0.292,0.887L25.8,30.3a9.974,9.974,0,0,0-.217,1.343l-0.038.274a1.671,1.671,0,0,0-.027.274l-0.014.554L25.481,33.76Zm24.3-1a4.592,4.592,0,0,1-2.258-8.6A10.3,10.3,0,1,0,49.352,30.2,4.6,4.6,0,0,1,45.348,32.535Z" transform="translate(0 -11)"/>
</svg>
