<svg xmlns="http://www.w3.org/2000/svg" width="580" height="239.938" viewBox="0 0 580 239.938">
  <metadata><?xpacket begin="﻿" id="W5M0MpCehiHzreSzNTczkc9d"?>
<x:xmpmeta xmlns:x="adobe:ns:meta/" x:xmptk="Adobe XMP Core 5.6-c138 79.159824, 2016/09/14-01:09:01        ">
   <rdf:RDF xmlns:rdf="http://www.w3.org/1999/02/22-rdf-syntax-ns#">
      <rdf:Description rdf:about=""/>
   </rdf:RDF>
</x:xmpmeta>
                                                                                                    
                                                                                                    
                                                                                                    
                                                                                                    
                                                                                                    
                                                                                                    
                                                                                                    
                                                                                                    
                                                                                                    
                                                                                                    
                                                                                                    
                                                                                                    
                                                                                                    
                                                                                                    
                                                                                                    
                                                                                                    
                                                                                                    
                                                                                                    
                                                                                                    
                                                                                                    
                           
<?xpacket end="w"?></metadata>
<defs>
    <style>
      .cls-1 {
        fill: #ffd200;
        fill-rule: evenodd;
      }
    </style>
  </defs>
  <path id="AB" class="cls-1" d="M584.058,651.947V412.01L321.969,581.378h93.015L536.02,512.925l-0.471,79.038-227.964-.7-83.577,60.689h360.05Zm203.084-129.66a39.413,39.413,0,0,0,6.835-10.4,72.062,72.062,0,0,0,4.832-14.526,85.911,85.911,0,0,0,1.885-19.01q0-16.494-4.36-28.874a56.592,56.592,0,0,0-12.492-20.8A50.74,50.74,0,0,0,764.28,416.12,75.046,75.046,0,0,0,738.707,412H601.268L601.3,474.4h139.53a15.2,15.2,0,0,1,9.428,3.229q4.242,3.228,4.243,12.194,0,9.332-4.125,12.733a14.53,14.53,0,0,1-9.546,3.408H601.3v145.98H739.885q18.617,0,30.994-5.38a49.42,49.42,0,0,0,19.681-14.706A56.824,56.824,0,0,0,800.93,609.8a118.849,118.849,0,0,0,3.064-27.8q0-21.522-7.189-35.15t-17.559-18.293A31.54,31.54,0,0,0,787.142,522.287Zm-47.021,34.971q8.01,0,11.549,4.125t3.536,12.015q0,8.254-3.536,12.554t-11.549,4.3h-89.8v-33h89.8Z" transform="translate(-224 -412)"/>
</svg>
